<svg id="uber-2" xmlns="http://www.w3.org/2000/svg" width="91.458" height="31.75" viewBox="0 0 91.458 31.75">
  <path id="Tracé_11603" data-name="Tracé 11603" d="M5.262,22.675a7.82,7.82,0,0,0,1.605,2.631A6.908,6.908,0,0,0,9.3,26.979a7.929,7.929,0,0,0,3.055.58,7.559,7.559,0,0,0,3.01-.6,7.4,7.4,0,0,0,2.453-1.694,7.683,7.683,0,0,0,1.628-2.609,9.425,9.425,0,0,0,.58-3.389V0H24.7V31.215H20.067v-2.9a10.75,10.75,0,0,1-3.679,2.542,11.659,11.659,0,0,1-4.571.892,12.375,12.375,0,0,1-4.66-.87,10.911,10.911,0,0,1-3.746-2.475,11.674,11.674,0,0,1-2.5-3.857A13.224,13.224,0,0,1,0,19.532V0H4.682V19.264A9.607,9.607,0,0,0,5.262,22.675ZM32.775,0V11.371A11.927,11.927,0,0,1,36.387,8.9a10.829,10.829,0,0,1,4.459-.914,11.76,11.76,0,0,1,4.682.936,11.8,11.8,0,0,1,6.332,6.332,11.649,11.649,0,0,1,.936,4.638,11.489,11.489,0,0,1-.936,4.615,11.855,11.855,0,0,1-6.332,6.31,11.76,11.76,0,0,1-4.682.936,10.983,10.983,0,0,1-4.482-.914,11.846,11.846,0,0,1-3.634-2.475v2.854H28.271V0Zm.513,22.965a7.759,7.759,0,0,0,1.672,2.5,8.07,8.07,0,0,0,2.5,1.695,7.592,7.592,0,0,0,3.077.624,7.482,7.482,0,0,0,3.032-.624,7.8,7.8,0,0,0,2.475-1.695,8.27,8.27,0,0,0,1.672-2.5,7.591,7.591,0,0,0,.624-3.077,7.75,7.75,0,0,0-.624-3.1,8.2,8.2,0,0,0-1.672-2.519A7.508,7.508,0,0,0,43.567,12.6,7.839,7.839,0,0,0,35,14.27a8,8,0,0,0-1.694,2.519,7.75,7.75,0,0,0-.624,3.1,7.832,7.832,0,0,0,.6,3.077ZM55.339,15.3a12.132,12.132,0,0,1,2.453-3.768A11.8,11.8,0,0,1,70.679,8.919a10.788,10.788,0,0,1,3.612,2.475,11.313,11.313,0,0,1,2.363,3.746,12.786,12.786,0,0,1,.847,4.7v1.472H59a7.626,7.626,0,0,0,.892,2.564,7.73,7.73,0,0,0,1.672,2.051,7.642,7.642,0,0,0,2.274,1.36,7.427,7.427,0,0,0,2.7.491,7.8,7.8,0,0,0,6.555-3.345l3.255,2.408a11.88,11.88,0,0,1-9.81,4.861,12.558,12.558,0,0,1-4.749-.892,11.565,11.565,0,0,1-3.835-2.5,11.847,11.847,0,0,1-2.564-3.768,12.167,12.167,0,0,1-.045-9.253ZM61.6,13.534a7.6,7.6,0,0,0-2.519,4.214H72.953a7.376,7.376,0,0,0-2.475-4.214,7.01,7.01,0,0,0-8.874,0Zm24.325.513A6.038,6.038,0,0,0,84.5,18.283V31.215H80V8.473h4.459v2.809A6.339,6.339,0,0,1,86.665,9.1a6.247,6.247,0,0,1,3.233-.8h1.561v4.192H89.586a4.733,4.733,0,0,0-3.657,1.561Z" fill="#010202"/>
</svg>
